<?xml version="1.0" encoding="utf-8" standalone="no"?>
<!DOCTYPE svg PUBLIC "-//W3C//DTD SVG 1.1//EN"
  "http://www.w3.org/Graphics/SVG/1.1/DTD/svg11.dtd">
<svg xmlns:xlink="http://www.w3.org/1999/xlink" width="720pt" height="432pt" viewBox="0 0 720 432" xmlns="http://www.w3.org/2000/svg" version="1.1">
 <metadata>
  <rdf:RDF xmlns:dc="http://purl.org/dc/elements/1.1/" xmlns:cc="http://creativecommons.org/ns#" xmlns:rdf="http://www.w3.org/1999/02/22-rdf-syntax-ns#">
   <cc:Work>
    <dc:type rdf:resource="http://purl.org/dc/dcmitype/StillImage"/>
    <dc:date>2025-03-16T02:38:39.794370</dc:date>
    <dc:format>image/svg+xml</dc:format>
    <dc:creator>
     <cc:Agent>
      <dc:title>Matplotlib v3.9.2, https://matplotlib.org/</dc:title>
     </cc:Agent>
    </dc:creator>
   </cc:Work>
  </rdf:RDF>
 </metadata>
 <defs>
  <style type="text/css">*{stroke-linejoin: round; stroke-linecap: butt}</style>
 </defs>
 <g id="figure_1">
  <g id="patch_1">
   <path d="M 0 432 
L 720 432 
L 720 0 
L 0 0 
z
" style="fill: #ffffff"/>
  </g>
  <g id="axes_1">
   <g id="patch_2">
    <path d="M 90 384.48 
L 648 384.48 
L 648 51.84 
L 90 51.84 
z
" style="fill: #ffffff"/>
   </g>
   <g id="matplotlib.axis_1">
    <g id="xtick_1">
     <g id="line2d_1">
      <path d="M 115.363636 384.48 
L 115.363636 51.84 
" clip-path="url(#p05f5b0c24e)" style="fill: none; stroke: #b0b0b0; stroke-width: 0.8; stroke-linecap: square"/>
     </g>
     <g id="line2d_2">
      <defs>
       <path id="m955cb43e6b" d="M 0 0 
L 0 3.5 
" style="stroke: #000000; stroke-width: 0.8"/>
      </defs>
      <g>
       <use xlink:href="#m955cb43e6b" x="115.363636" y="384.48" style="stroke: #000000; stroke-width: 0.8"/>
      </g>
     </g>
     <g id="text_1">
      <!-- 0.0 -->
      <g transform="translate(107.863636 398.355) scale(0.1 -0.1)">
       <defs>
        <path id="SimHei-30" d="M 225 2537 
Q 250 3200 412 3587 
Q 575 3975 875 4225 
Q 1175 4475 1612 4475 
Q 2050 4475 2375 4112 
Q 2700 3750 2800 3200 
Q 2900 2650 2862 1937 
Q 2825 1225 2612 775 
Q 2400 325 1975 150 
Q 1550 -25 1125 187 
Q 700 400 525 750 
Q 350 1100 275 1487 
Q 200 1875 225 2537 
z
M 750 2687 
Q 675 2000 800 1462 
Q 925 925 1212 700 
Q 1500 475 1800 612 
Q 2100 750 2237 1162 
Q 2375 1575 2375 2062 
Q 2375 2550 2337 2950 
Q 2300 3350 2112 3675 
Q 1925 4000 1612 4012 
Q 1300 4025 1062 3700 
Q 825 3375 750 2687 
z
" transform="scale(0.015625)"/>
        <path id="SimHei-2e" d="M 1075 125 
L 500 125 
L 500 675 
L 1075 675 
L 1075 125 
z
" transform="scale(0.015625)"/>
       </defs>
       <use xlink:href="#SimHei-30"/>
       <use xlink:href="#SimHei-2e" x="50"/>
       <use xlink:href="#SimHei-30" x="100"/>
      </g>
     </g>
    </g>
    <g id="xtick_2">
     <g id="line2d_3">
      <path d="M 216.818182 384.48 
L 216.818182 51.84 
" clip-path="url(#p05f5b0c24e)" style="fill: none; stroke: #b0b0b0; stroke-width: 0.8; stroke-linecap: square"/>
     </g>
     <g id="line2d_4">
      <g>
       <use xlink:href="#m955cb43e6b" x="216.818182" y="384.48" style="stroke: #000000; stroke-width: 0.8"/>
      </g>
     </g>
     <g id="text_2">
      <!-- 0.2 -->
      <g transform="translate(209.318182 398.355) scale(0.1 -0.1)">
       <defs>
        <path id="SimHei-32" d="M 300 250 
Q 325 625 650 925 
Q 975 1225 1475 1862 
Q 1975 2500 2125 2850 
Q 2275 3200 2237 3450 
Q 2200 3700 2000 3862 
Q 1800 4025 1537 4000 
Q 1275 3975 1037 3800 
Q 800 3625 675 3275 
L 200 3350 
Q 400 3925 712 4187 
Q 1025 4450 1450 4475 
Q 1700 4500 1900 4462 
Q 2100 4425 2312 4287 
Q 2525 4150 2662 3875 
Q 2800 3600 2762 3212 
Q 2725 2825 2375 2287 
Q 2025 1750 1025 600 
L 2825 600 
L 2825 150 
L 300 150 
L 300 250 
z
" transform="scale(0.015625)"/>
       </defs>
       <use xlink:href="#SimHei-30"/>
       <use xlink:href="#SimHei-2e" x="50"/>
       <use xlink:href="#SimHei-32" x="100"/>
      </g>
     </g>
    </g>
    <g id="xtick_3">
     <g id="line2d_5">
      <path d="M 318.272727 384.48 
L 318.272727 51.84 
" clip-path="url(#p05f5b0c24e)" style="fill: none; stroke: #b0b0b0; stroke-width: 0.8; stroke-linecap: square"/>
     </g>
     <g id="line2d_6">
      <g>
       <use xlink:href="#m955cb43e6b" x="318.272727" y="384.48" style="stroke: #000000; stroke-width: 0.8"/>
      </g>
     </g>
     <g id="text_3">
      <!-- 0.4 -->
      <g transform="translate(310.772727 398.355) scale(0.1 -0.1)">
       <defs>
        <path id="SimHei-34" d="M 2000 1100 
L 75 1100 
L 75 1525 
L 2100 4450 
L 2475 4450 
L 2475 1525 
L 3075 1525 
L 3075 1100 
L 2475 1100 
L 2475 150 
L 2000 150 
L 2000 1100 
z
M 2000 1525 
L 2000 3500 
L 600 1525 
L 2000 1525 
z
" transform="scale(0.015625)"/>
       </defs>
       <use xlink:href="#SimHei-30"/>
       <use xlink:href="#SimHei-2e" x="50"/>
       <use xlink:href="#SimHei-34" x="100"/>
      </g>
     </g>
    </g>
    <g id="xtick_4">
     <g id="line2d_7">
      <path d="M 419.727273 384.48 
L 419.727273 51.84 
" clip-path="url(#p05f5b0c24e)" style="fill: none; stroke: #b0b0b0; stroke-width: 0.8; stroke-linecap: square"/>
     </g>
     <g id="line2d_8">
      <g>
       <use xlink:href="#m955cb43e6b" x="419.727273" y="384.48" style="stroke: #000000; stroke-width: 0.8"/>
      </g>
     </g>
     <g id="text_4">
      <!-- 0.6 -->
      <g transform="translate(412.227273 398.355) scale(0.1 -0.1)">
       <defs>
        <path id="SimHei-36" d="M 250 1612 
Q 275 1975 387 2225 
Q 500 2475 725 2850 
L 1750 4450 
L 2325 4450 
L 1275 2800 
Q 1950 2975 2350 2750 
Q 2750 2525 2887 2237 
Q 3025 1950 3037 1612 
Q 3050 1275 2937 950 
Q 2825 625 2537 362 
Q 2250 100 1737 75 
Q 1225 50 862 262 
Q 500 475 362 862 
Q 225 1250 250 1612 
z
M 1025 787 
Q 1250 550 1625 525 
Q 2000 500 2250 775 
Q 2500 1050 2500 1575 
Q 2500 2100 2187 2300 
Q 1875 2500 1487 2450 
Q 1100 2400 925 2075 
Q 750 1750 775 1387 
Q 800 1025 1025 787 
z
" transform="scale(0.015625)"/>
       </defs>
       <use xlink:href="#SimHei-30"/>
       <use xlink:href="#SimHei-2e" x="50"/>
       <use xlink:href="#SimHei-36" x="100"/>
      </g>
     </g>
    </g>
    <g id="xtick_5">
     <g id="line2d_9">
      <path d="M 521.181818 384.48 
L 521.181818 51.84 
" clip-path="url(#p05f5b0c24e)" style="fill: none; stroke: #b0b0b0; stroke-width: 0.8; stroke-linecap: square"/>
     </g>
     <g id="line2d_10">
      <g>
       <use xlink:href="#m955cb43e6b" x="521.181818" y="384.48" style="stroke: #000000; stroke-width: 0.8"/>
      </g>
     </g>
     <g id="text_5">
      <!-- 0.8 -->
      <g transform="translate(513.681818 398.355) scale(0.1 -0.1)">
       <defs>
        <path id="SimHei-38" d="M 175 1375 
Q 175 1675 325 1962 
Q 475 2250 825 2425 
Q 525 2600 425 2812 
Q 325 3025 312 3300 
Q 300 3575 387 3775 
Q 475 3975 650 4150 
Q 825 4325 1037 4387 
Q 1250 4450 1500 4450 
Q 1750 4450 1950 4400 
Q 2150 4350 2375 4187 
Q 2600 4025 2700 3725 
Q 2800 3425 2687 3025 
Q 2575 2625 2100 2400 
Q 2525 2275 2700 2012 
Q 2875 1750 2875 1375 
Q 2875 1000 2762 775 
Q 2650 550 2512 400 
Q 2375 250 2137 162 
Q 1900 75 1537 75 
Q 1175 75 912 162 
Q 650 250 475 425 
Q 300 600 237 837 
Q 175 1075 175 1375 
z
M 687 1400 
Q 675 1100 787 875 
Q 900 650 1200 587 
Q 1500 525 1825 600 
Q 2150 675 2275 950 
Q 2400 1225 2362 1500 
Q 2325 1775 2050 1962 
Q 1775 2150 1450 2125 
Q 1125 2100 912 1900 
Q 700 1700 687 1400 
z
M 775 3350 
Q 775 3100 950 2875 
Q 1125 2650 1500 2650 
Q 1875 2650 2062 2875 
Q 2250 3100 2237 3412 
Q 2225 3725 2012 3875 
Q 1800 4025 1437 4000 
Q 1075 3975 925 3787 
Q 775 3600 775 3350 
z
" transform="scale(0.015625)"/>
       </defs>
       <use xlink:href="#SimHei-30"/>
       <use xlink:href="#SimHei-2e" x="50"/>
       <use xlink:href="#SimHei-38" x="100"/>
      </g>
     </g>
    </g>
    <g id="xtick_6">
     <g id="line2d_11">
      <path d="M 622.636364 384.48 
L 622.636364 51.84 
" clip-path="url(#p05f5b0c24e)" style="fill: none; stroke: #b0b0b0; stroke-width: 0.8; stroke-linecap: square"/>
     </g>
     <g id="line2d_12">
      <g>
       <use xlink:href="#m955cb43e6b" x="622.636364" y="384.48" style="stroke: #000000; stroke-width: 0.8"/>
      </g>
     </g>
     <g id="text_6">
      <!-- 1.0 -->
      <g transform="translate(615.136364 398.355) scale(0.1 -0.1)">
       <defs>
        <path id="SimHei-31" d="M 1400 3600 
Q 1075 3275 575 2975 
L 575 3450 
Q 1200 3875 1600 4450 
L 1900 4450 
L 1900 150 
L 1400 150 
L 1400 3600 
z
" transform="scale(0.015625)"/>
       </defs>
       <use xlink:href="#SimHei-31"/>
       <use xlink:href="#SimHei-2e" x="50"/>
       <use xlink:href="#SimHei-30" x="100"/>
      </g>
     </g>
    </g>
    <g id="text_7">
     <!-- 感染率 (β) -->
     <g transform="translate(341.5 411.73) scale(0.1 -0.1)">
      <defs>
       <path id="SimHei-611f" d="M 6125 1900 
Q 5900 1200 5725 1112 
Q 5550 1025 5237 1137 
Q 4925 1250 4425 1700 
Q 4125 1375 3725 1100 
Q 3550 1300 3350 1400 
Q 3875 1700 4175 2050 
Q 3900 2500 3762 3037 
Q 3625 3575 3575 4050 
L 1325 4050 
Q 1325 2925 1287 2525 
Q 1250 2125 1125 1775 
Q 1000 1425 750 1025 
Q 450 1225 275 1275 
Q 575 1650 712 2012 
Q 850 2375 875 2850 
Q 900 3325 875 4450 
L 3525 4450 
Q 3525 4650 3500 5175 
Q 3725 5125 4025 5100 
Q 3975 4800 4000 4450 
L 5100 4450 
Q 5450 4450 5925 4475 
L 5925 4025 
Q 5450 4050 5125 4050 
L 4025 4050 
Q 4125 3000 4450 2475 
Q 4600 2725 4725 3087 
Q 4850 3450 4925 3775 
Q 5175 3675 5450 3600 
Q 5350 3500 5187 3050 
Q 5025 2600 4725 2050 
Q 5000 1800 5212 1675 
Q 5425 1550 5487 1625 
Q 5550 1700 5650 2150 
Q 5850 1975 6125 1900 
z
M 3325 1600 
L 1575 1600 
L 1575 2875 
L 3325 2875 
L 3325 1600 
z
M 4875 175 
Q 4700 -325 4575 -412 
Q 4450 -500 4250 -500 
L 2350 -500 
Q 2025 -475 1962 -200 
Q 1900 75 1900 325 
Q 1900 575 1875 925 
L 2400 925 
Q 2375 500 2375 325 
Q 2375 175 2400 25 
Q 2425 -125 2725 -100 
L 3875 -100 
Q 4125 -100 4212 -12 
Q 4300 75 4350 450 
Q 4550 300 4875 175 
z
M 3300 3275 
L 1600 3275 
L 1600 3650 
L 3300 3650 
L 3300 3275 
z
M 5350 900 
Q 5900 225 6075 -50 
Q 5825 -200 5625 -350 
Q 5375 125 4950 600 
Q 5125 725 5350 900 
z
M 475 -175 
Q 700 100 975 925 
Q 1175 825 1450 725 
Q 1125 -25 950 -375 
Q 750 -275 475 -175 
z
M 2925 1950 
L 2925 2525 
L 1975 2525 
L 1975 1950 
L 2925 1950 
z
M 2725 1050 
Q 2875 1175 3100 1325 
Q 3525 775 3650 550 
Q 3450 425 3275 250 
Q 3125 525 2725 1050 
z
M 4900 4500 
Q 4750 4625 4350 4900 
Q 4500 5075 4600 5225 
Q 4775 5125 5200 4800 
Q 5050 4675 4900 4500 
z
" transform="scale(0.015625)"/>
       <path id="SimHei-67d3" d="M 5825 -450 
Q 4750 -150 4250 250 
Q 3750 650 3450 1150 
Q 3450 -300 3475 -600 
L 2950 -600 
Q 2975 -275 2975 1075 
Q 2600 550 2012 150 
Q 1425 -250 625 -575 
Q 550 -325 200 -100 
Q 1075 100 1662 487 
Q 2250 875 2475 1225 
L 1225 1225 
Q 875 1225 400 1200 
L 400 1650 
Q 875 1625 1225 1625 
L 2975 1625 
Q 2975 1825 2950 2150 
L 3475 2150 
Q 3450 1850 3450 1625 
L 5300 1625 
Q 5625 1625 6000 1650 
L 6000 1200 
Q 5625 1225 5300 1225 
L 3950 1225 
Q 4350 675 5000 400 
Q 5650 125 6175 75 
Q 5850 -250 5825 -450 
z
M 1825 2300 
Q 2550 2575 2925 3012 
Q 3300 3450 3400 4000 
Q 3025 4000 2575 3975 
L 2575 4425 
Q 3050 4400 3425 4400 
Q 3450 4925 3425 5250 
Q 3725 5175 4000 5175 
Q 3925 5025 3900 4400 
L 5125 4400 
Q 5100 4150 5075 3850 
L 5000 2850 
Q 5025 2600 5175 2600 
L 5450 2600 
Q 5575 2600 5612 2700 
Q 5650 2800 5675 3200 
Q 5875 3025 6200 3000 
Q 6100 2325 5912 2262 
Q 5725 2200 5387 2187 
Q 5050 2175 4787 2237 
Q 4525 2300 4550 2700 
L 4625 4000 
L 3875 4000 
Q 3800 3425 3475 2937 
Q 3150 2450 2275 1925 
Q 2175 2100 1825 2300 
z
M 2175 2925 
Q 1225 2175 850 1875 
Q 700 2125 500 2300 
Q 1100 2600 2000 3375 
Q 2050 3175 2175 2925 
z
M 675 4150 
Q 1375 3825 1750 3600 
Q 1575 3375 1475 3175 
Q 1225 3400 450 3750 
Q 600 3925 675 4150 
z
M 1850 4150 
Q 1475 4475 900 4775 
Q 1025 4925 1175 5125 
Q 1750 4800 2175 4550 
Q 1950 4325 1850 4150 
z
" transform="scale(0.015625)"/>
       <path id="SimHei-7387" d="M 3325 5150 
Q 3425 4900 3550 4525 
L 4800 4525 
Q 5250 4525 5800 4550 
L 5800 4125 
Q 5250 4175 4775 4175 
L 2800 4175 
Q 2975 4050 3300 3900 
Q 3075 3750 2875 3537 
Q 2675 3325 2475 3125 
L 3275 3125 
Q 3575 3425 3775 3775 
Q 4000 3600 4275 3425 
Q 3950 3250 3600 2875 
Q 3250 2500 2625 2000 
L 3850 2100 
Q 3725 2250 3600 2425 
Q 3750 2475 4000 2650 
Q 4250 2350 4700 1700 
Q 4475 1625 4225 1450 
Q 4175 1600 4025 1775 
Q 3700 1750 3425 1750 
L 3425 1050 
L 5150 1050 
Q 5675 1050 6100 1075 
L 6100 650 
Q 5700 675 5125 675 
L 3425 675 
L 3425 175 
Q 3425 -300 3450 -625 
L 2900 -625 
Q 2925 -300 2925 175 
L 2925 675 
L 1325 675 
Q 825 675 325 650 
L 325 1075 
Q 825 1050 1350 1050 
L 2925 1050 
L 2925 1700 
Q 2700 1675 2475 1637 
Q 2250 1600 2025 1525 
Q 1950 1775 1850 2000 
Q 2075 2025 2325 2200 
Q 2575 2375 2975 2800 
Q 2300 2725 2025 2625 
Q 1975 2875 1850 3175 
Q 2075 3175 2325 3487 
Q 2575 3800 2750 4175 
L 1700 4175 
Q 1150 4175 650 4125 
L 650 4550 
Q 1150 4525 1550 4525 
L 2975 4525 
Q 2900 4825 2800 5025 
Q 3025 5075 3325 5150 
z
M 1625 2575 
Q 1725 2400 1825 2200 
Q 1575 2050 1325 1862 
Q 1075 1675 800 1425 
Q 625 1675 475 1875 
Q 800 2025 1100 2212 
Q 1400 2400 1625 2575 
z
M 4850 2650 
Q 5125 2475 5337 2337 
Q 5550 2200 5875 1950 
Q 5675 1800 5500 1600 
Q 5300 1775 5062 1975 
Q 4825 2175 4575 2325 
Q 4725 2475 4850 2650 
z
M 5725 3525 
Q 5550 3450 5300 3262 
Q 5050 3075 4800 2825 
Q 4625 3050 4475 3175 
Q 4700 3325 4875 3487 
Q 5050 3650 5300 3925 
Q 5525 3700 5725 3525 
z
M 1050 3850 
Q 1425 3600 1775 3275 
Q 1575 3100 1425 2925 
Q 1075 3300 675 3525 
Q 875 3700 1050 3850 
z
" transform="scale(0.015625)"/>
       <path id="SimHei-20" transform="scale(0.015625)"/>
       <path id="SimHei-28" d="M 2975 -200 
L 2700 -475 
Q 2075 125 1762 775 
Q 1450 1425 1450 2250 
Q 1450 3075 1762 3725 
Q 2075 4375 2700 5000 
L 2975 4725 
Q 2400 4175 2112 3587 
Q 1825 3000 1825 2250 
Q 1825 1500 2112 912 
Q 2400 325 2975 -200 
z
" transform="scale(0.015625)"/>
       <path id="SimHei-3b2" d="M 3050 4550 
Q 3775 4500 4000 3925 
Q 4225 3200 3750 2650 
L 3725 2625 
Q 4500 2375 4475 1275 
Q 4275 325 3450 175 
Q 2775 75 2325 525 
L 2325 -750 
L 1925 -750 
L 1925 3525 
Q 2100 4400 2800 4525 
L 3050 4550 
z
M 2950 4150 
Q 2400 4075 2350 3650 
L 2325 3075 
L 2325 1025 
Q 2600 600 3200 575 
L 3325 575 
Q 4000 675 4075 1575 
Q 4025 2200 3550 2325 
L 3050 2350 
L 2850 2350 
L 2850 2700 
Q 3450 2575 3650 3300 
L 3650 3600 
Q 3650 3925 3125 4125 
L 2950 4150 
z
" transform="scale(0.015625)"/>
       <path id="SimHei-29" d="M 1675 2250 
Q 1675 1425 1362 775 
Q 1050 125 425 -475 
L 150 -200 
Q 725 325 1012 912 
Q 1300 1500 1300 2250 
Q 1300 3000 1012 3587 
Q 725 4175 150 4725 
L 425 5000 
Q 1050 4375 1362 3725 
Q 1675 3075 1675 2250 
z
" transform="scale(0.015625)"/>
      </defs>
      <use xlink:href="#SimHei-611f"/>
      <use xlink:href="#SimHei-67d3" x="100"/>
      <use xlink:href="#SimHei-7387" x="200"/>
      <use xlink:href="#SimHei-20" x="300"/>
      <use xlink:href="#SimHei-28" x="350"/>
      <use xlink:href="#SimHei-3b2" x="400"/>
      <use xlink:href="#SimHei-29" x="500"/>
     </g>
    </g>
   </g>
   <g id="matplotlib.axis_2">
    <g id="ytick_1">
     <g id="line2d_13">
      <path d="M 90 360.105267 
L 648 360.105267 
" clip-path="url(#p05f5b0c24e)" style="fill: none; stroke: #b0b0b0; stroke-width: 0.8; stroke-linecap: square"/>
     </g>
     <g id="line2d_14">
      <defs>
       <path id="m772032a088" d="M 0 0 
L -3.5 0 
" style="stroke: #000000; stroke-width: 0.8"/>
      </defs>
      <g>
       <use xlink:href="#m772032a088" x="90" y="360.105267" style="stroke: #000000; stroke-width: 0.8"/>
      </g>
     </g>
     <g id="text_8">
      <!-- 0.35 -->
      <g transform="translate(63 363.542767) scale(0.1 -0.1)">
       <defs>
        <path id="SimHei-33" d="M 250 1225 
L 700 1300 
Q 800 975 1025 762 
Q 1250 550 1587 562 
Q 1925 575 2125 837 
Q 2325 1100 2300 1437 
Q 2275 1775 2037 1962 
Q 1800 2150 1275 2225 
L 1275 2550 
Q 1800 2600 2037 2825 
Q 2275 3050 2250 3412 
Q 2225 3775 1925 3937 
Q 1625 4100 1287 3975 
Q 950 3850 750 3275 
L 300 3350 
Q 450 3800 712 4100 
Q 975 4400 1425 4450 
Q 1875 4500 2212 4337 
Q 2550 4175 2687 3837 
Q 2825 3500 2725 3100 
Q 2625 2700 2150 2400 
Q 2500 2250 2687 1950 
Q 2875 1650 2812 1162 
Q 2750 675 2375 375 
Q 2000 75 1525 87 
Q 1050 100 700 387 
Q 350 675 250 1225 
z
" transform="scale(0.015625)"/>
        <path id="SimHei-35" d="M 550 1325 
Q 725 650 1150 575 
Q 1575 500 1837 662 
Q 2100 825 2212 1087 
Q 2325 1350 2312 1675 
Q 2300 2000 2137 2225 
Q 1975 2450 1725 2525 
Q 1475 2600 1162 2525 
Q 850 2450 650 2175 
L 225 2225 
Q 275 2375 700 4375 
L 2675 4375 
L 2675 3925 
L 1075 3925 
Q 950 3250 825 2850 
Q 1200 3025 1525 3012 
Q 1850 3000 2150 2862 
Q 2450 2725 2587 2487 
Q 2725 2250 2787 2012 
Q 2850 1775 2837 1500 
Q 2825 1225 2725 937 
Q 2625 650 2425 462 
Q 2225 275 1937 162 
Q 1650 50 1275 75 
Q 900 100 562 350 
Q 225 600 100 1200 
L 550 1325 
z
" transform="scale(0.015625)"/>
       </defs>
       <use xlink:href="#SimHei-30"/>
       <use xlink:href="#SimHei-2e" x="50"/>
       <use xlink:href="#SimHei-33" x="100"/>
       <use xlink:href="#SimHei-35" x="150"/>
      </g>
     </g>
    </g>
    <g id="ytick_2">
     <g id="line2d_15">
      <path d="M 90 315.883491 
L 648 315.883491 
" clip-path="url(#p05f5b0c24e)" style="fill: none; stroke: #b0b0b0; stroke-width: 0.8; stroke-linecap: square"/>
     </g>
     <g id="line2d_16">
      <g>
       <use xlink:href="#m772032a088" x="90" y="315.883491" style="stroke: #000000; stroke-width: 0.8"/>
      </g>
     </g>
     <g id="text_9">
      <!-- 0.40 -->
      <g transform="translate(63 319.320991) scale(0.1 -0.1)">
       <use xlink:href="#SimHei-30"/>
       <use xlink:href="#SimHei-2e" x="50"/>
       <use xlink:href="#SimHei-34" x="100"/>
       <use xlink:href="#SimHei-30" x="150"/>
      </g>
     </g>
    </g>
    <g id="ytick_3">
     <g id="line2d_17">
      <path d="M 90 271.661715 
L 648 271.661715 
" clip-path="url(#p05f5b0c24e)" style="fill: none; stroke: #b0b0b0; stroke-width: 0.8; stroke-linecap: square"/>
     </g>
     <g id="line2d_18">
      <g>
       <use xlink:href="#m772032a088" x="90" y="271.661715" style="stroke: #000000; stroke-width: 0.8"/>
      </g>
     </g>
     <g id="text_10">
      <!-- 0.45 -->
      <g transform="translate(63 275.099215) scale(0.1 -0.1)">
       <use xlink:href="#SimHei-30"/>
       <use xlink:href="#SimHei-2e" x="50"/>
       <use xlink:href="#SimHei-34" x="100"/>
       <use xlink:href="#SimHei-35" x="150"/>
      </g>
     </g>
    </g>
    <g id="ytick_4">
     <g id="line2d_19">
      <path d="M 90 227.43994 
L 648 227.43994 
" clip-path="url(#p05f5b0c24e)" style="fill: none; stroke: #b0b0b0; stroke-width: 0.8; stroke-linecap: square"/>
     </g>
     <g id="line2d_20">
      <g>
       <use xlink:href="#m772032a088" x="90" y="227.43994" style="stroke: #000000; stroke-width: 0.8"/>
      </g>
     </g>
     <g id="text_11">
      <!-- 0.50 -->
      <g transform="translate(63 230.87744) scale(0.1 -0.1)">
       <use xlink:href="#SimHei-30"/>
       <use xlink:href="#SimHei-2e" x="50"/>
       <use xlink:href="#SimHei-35" x="100"/>
       <use xlink:href="#SimHei-30" x="150"/>
      </g>
     </g>
    </g>
    <g id="ytick_5">
     <g id="line2d_21">
      <path d="M 90 183.218164 
L 648 183.218164 
" clip-path="url(#p05f5b0c24e)" style="fill: none; stroke: #b0b0b0; stroke-width: 0.8; stroke-linecap: square"/>
     </g>
     <g id="line2d_22">
      <g>
       <use xlink:href="#m772032a088" x="90" y="183.218164" style="stroke: #000000; stroke-width: 0.8"/>
      </g>
     </g>
     <g id="text_12">
      <!-- 0.55 -->
      <g transform="translate(63 186.655664) scale(0.1 -0.1)">
       <use xlink:href="#SimHei-30"/>
       <use xlink:href="#SimHei-2e" x="50"/>
       <use xlink:href="#SimHei-35" x="100"/>
       <use xlink:href="#SimHei-35" x="150"/>
      </g>
     </g>
    </g>
    <g id="ytick_6">
     <g id="line2d_23">
      <path d="M 90 138.996388 
L 648 138.996388 
" clip-path="url(#p05f5b0c24e)" style="fill: none; stroke: #b0b0b0; stroke-width: 0.8; stroke-linecap: square"/>
     </g>
     <g id="line2d_24">
      <g>
       <use xlink:href="#m772032a088" x="90" y="138.996388" style="stroke: #000000; stroke-width: 0.8"/>
      </g>
     </g>
     <g id="text_13">
      <!-- 0.60 -->
      <g transform="translate(63 142.433888) scale(0.1 -0.1)">
       <use xlink:href="#SimHei-30"/>
       <use xlink:href="#SimHei-2e" x="50"/>
       <use xlink:href="#SimHei-36" x="100"/>
       <use xlink:href="#SimHei-30" x="150"/>
      </g>
     </g>
    </g>
    <g id="ytick_7">
     <g id="line2d_25">
      <path d="M 90 94.774612 
L 648 94.774612 
" clip-path="url(#p05f5b0c24e)" style="fill: none; stroke: #b0b0b0; stroke-width: 0.8; stroke-linecap: square"/>
     </g>
     <g id="line2d_26">
      <g>
       <use xlink:href="#m772032a088" x="90" y="94.774612" style="stroke: #000000; stroke-width: 0.8"/>
      </g>
     </g>
     <g id="text_14">
      <!-- 0.65 -->
      <g transform="translate(63 98.212112) scale(0.1 -0.1)">
       <use xlink:href="#SimHei-30"/>
       <use xlink:href="#SimHei-2e" x="50"/>
       <use xlink:href="#SimHei-36" x="100"/>
       <use xlink:href="#SimHei-35" x="150"/>
      </g>
     </g>
    </g>
    <g id="text_15">
     <!-- 稳态感染比例 -->
     <g transform="translate(57.75 248.16) rotate(-90) scale(0.1 -0.1)">
      <defs>
       <path id="SimHei-7a33" d="M 4050 5125 
Q 3875 4975 3675 4625 
L 5325 4625 
Q 5200 4450 5062 4212 
Q 4925 3975 4800 3650 
L 5625 3650 
Q 5600 3350 5600 2600 
Q 5600 1875 5625 1425 
L 3425 1425 
Q 3075 1425 2750 1400 
L 2750 1850 
Q 3075 1825 3450 1825 
L 5100 1825 
L 5100 2375 
L 3550 2375 
Q 3175 2375 2875 2350 
L 2875 2775 
Q 3175 2750 3525 2750 
L 5100 2750 
L 5100 3275 
L 3775 3275 
Q 3350 3275 3050 3250 
L 3050 3650 
Q 2875 3425 2725 3200 
Q 2525 3400 2350 3475 
Q 2675 3875 2987 4412 
Q 3300 4950 3400 5300 
Q 3725 5200 4050 5125 
z
M 2500 4575 
Q 2275 4575 2012 4512 
Q 1750 4450 1625 4450 
L 1625 3350 
Q 1975 3350 2375 3375 
L 2375 2950 
Q 1925 2975 1625 2975 
L 1625 2225 
Q 1775 2325 1950 2500 
Q 2225 2100 2525 1600 
Q 2300 1500 2150 1350 
Q 1950 1725 1625 2175 
L 1625 400 
Q 1625 25 1650 -625 
L 1150 -625 
Q 1200 25 1200 400 
L 1200 2075 
Q 875 1250 475 650 
Q 375 925 175 1125 
Q 325 1250 650 1887 
Q 975 2525 1050 2975 
Q 750 2975 275 2950 
L 275 3375 
Q 750 3350 1200 3350 
L 1200 4325 
Q 950 4275 550 4200 
Q 475 4425 275 4625 
Q 750 4675 1237 4775 
Q 1725 4875 2125 5075 
Q 2275 4775 2500 4575 
z
M 3675 1025 
Q 3650 700 3650 300 
Q 3650 -75 3775 -100 
Q 3900 -125 4250 -125 
Q 4600 -125 4687 -100 
Q 4775 -75 4825 425 
Q 5025 275 5350 200 
Q 5150 -450 4950 -500 
Q 4750 -550 4175 -550 
Q 3625 -550 3425 -487 
Q 3225 -425 3225 -100 
L 3225 525 
Q 3225 775 3200 1025 
L 3675 1025 
z
M 3050 3675 
Q 3325 3650 3775 3650 
L 4275 3650 
Q 4450 4000 4575 4275 
L 3425 4275 
Q 3275 4050 3050 3675 
z
M 2925 900 
Q 2800 725 2700 287 
Q 2600 -150 2550 -300 
Q 2325 -200 2075 -175 
Q 2225 200 2275 412 
Q 2325 625 2425 1000 
L 2925 900 
z
M 5575 1100 
Q 5950 475 6175 50 
Q 5950 -25 5750 -175 
Q 5625 175 5200 925 
Q 5425 975 5575 1100 
z
M 4225 1300 
Q 4525 825 4625 525 
Q 4550 500 4250 350 
Q 4150 700 3850 1125 
Q 4050 1200 4225 1300 
z
" transform="scale(0.015625)"/>
       <path id="SimHei-6001" d="M 2575 4325 
Q 2700 4800 2725 5250 
Q 3075 5125 3350 5100 
Q 3225 4875 3100 4325 
L 5025 4325 
Q 5375 4325 5825 4375 
L 5825 3850 
Q 5350 3875 5000 3875 
L 3975 3875 
Q 4225 3300 4575 2987 
Q 4925 2675 5250 2525 
Q 5575 2375 6100 2275 
Q 5800 2075 5675 1775 
Q 4900 2100 4525 2412 
Q 4150 2725 3900 3075 
Q 3650 3425 3500 3875 
L 2975 3875 
Q 2675 3200 2187 2687 
Q 1700 2175 725 1625 
Q 650 1850 300 2075 
Q 900 2275 1512 2750 
Q 2125 3225 2425 3875 
L 1300 3875 
Q 900 3875 450 3850 
L 450 4375 
Q 875 4325 1300 4325 
L 2575 4325 
z
M 2525 1350 
Q 2500 875 2500 575 
Q 2500 300 2512 150 
Q 2525 0 2800 0 
L 3825 0 
Q 4025 -25 4175 62 
Q 4325 150 4400 625 
Q 4650 450 4975 375 
Q 4775 -150 4625 -312 
Q 4475 -475 4000 -450 
L 2500 -450 
Q 2050 -400 2012 -162 
Q 1975 75 1975 425 
Q 1975 800 1950 1350 
L 2525 1350 
z
M 1425 1175 
Q 1175 450 825 -325 
Q 625 -175 325 -125 
Q 775 625 875 1375 
Q 1175 1250 1425 1175 
z
M 5175 1525 
Q 5600 950 6050 350 
Q 5800 175 5600 0 
Q 5225 700 4750 1250 
Q 5000 1350 5175 1525 
z
M 2700 3050 
Q 3175 2675 3500 2325 
Q 3275 2175 3100 1975 
Q 2825 2350 2350 2700 
L 2700 3050 
z
M 3375 1750 
Q 3625 1350 3825 925 
Q 3625 800 3375 675 
Q 3200 1175 2950 1525 
Q 3175 1600 3375 1750 
z
" transform="scale(0.015625)"/>
       <path id="SimHei-6bd4" d="M 3775 5100 
Q 3750 4575 3750 4100 
L 3750 3050 
Q 4925 3600 5475 4175 
Q 5675 3900 5900 3675 
Q 5600 3500 5037 3187 
Q 4475 2875 3750 2550 
L 3750 450 
Q 3750 100 4050 100 
L 5000 100 
Q 5175 100 5262 250 
Q 5350 400 5450 900 
Q 5650 775 6025 675 
Q 5850 0 5650 -175 
Q 5450 -350 5225 -350 
L 3900 -350 
Q 3250 -350 3250 275 
L 3250 4000 
Q 3250 4550 3225 5100 
L 3775 5100 
z
M 1275 4975 
Q 1250 4575 1250 4000 
L 1250 3150 
L 1850 3150 
Q 2325 3150 2875 3175 
L 2875 2650 
Q 2325 2675 1850 2675 
L 1250 2675 
L 1250 475 
Q 1650 650 1962 812 
Q 2275 975 2850 1275 
Q 2900 950 2950 750 
Q 2375 475 1762 175 
Q 1150 -125 925 -325 
Q 750 -100 575 200 
Q 700 300 750 600 
L 750 3950 
Q 750 4550 725 4975 
L 1275 4975 
z
" transform="scale(0.015625)"/>
       <path id="SimHei-4f8b" d="M 3450 4725 
Q 3825 4725 4100 4750 
L 4100 4300 
Q 3825 4325 3500 4325 
L 3150 4325 
Q 3125 4025 3025 3350 
L 4050 3350 
Q 4000 2050 3612 1050 
Q 3225 50 2300 -600 
Q 2200 -400 1900 -150 
Q 2750 250 3200 1325 
Q 2975 1525 2550 1800 
Q 2700 2000 2825 2175 
Q 3200 1875 3350 1775 
Q 3500 2250 3575 2950 
L 2925 2950 
Q 2800 2425 2225 1575 
Q 2025 1775 1775 1925 
Q 2125 2275 2375 2837 
Q 2625 3400 2675 4325 
Q 2300 4325 2150 4300 
L 2150 4750 
Q 2400 4725 2800 4725 
L 3450 4725 
z
M 2050 4975 
Q 1875 4775 1550 3850 
L 1550 475 
Q 1550 -25 1575 -600 
L 1075 -600 
Q 1100 -75 1100 425 
L 1100 3000 
Q 950 2700 650 2250 
Q 550 2375 200 2625 
Q 525 2925 937 3762 
Q 1350 4600 1450 5200 
Q 1650 5075 2050 4975 
z
M 5950 5075 
Q 5900 4775 5900 4300 
L 5900 250 
Q 5900 -275 5700 -400 
Q 5500 -525 4850 -575 
Q 4825 -300 4650 50 
Q 5175 0 5300 25 
Q 5425 50 5450 300 
L 5450 4275 
Q 5450 4750 5400 5075 
L 5950 5075 
z
M 4925 4225 
Q 4875 3875 4875 3250 
L 4875 1800 
Q 4875 1200 4900 925 
L 4375 925 
Q 4425 1200 4425 1775 
L 4425 3275 
Q 4400 3850 4375 4225 
L 4925 4225 
z
" transform="scale(0.015625)"/>
      </defs>
      <use xlink:href="#SimHei-7a33"/>
      <use xlink:href="#SimHei-6001" x="100"/>
      <use xlink:href="#SimHei-611f" x="200"/>
      <use xlink:href="#SimHei-67d3" x="300"/>
      <use xlink:href="#SimHei-6bd4" x="400"/>
      <use xlink:href="#SimHei-4f8b" x="500"/>
     </g>
    </g>
   </g>
   <g id="line2d_27">
    <path d="M 115.363636 130.199793 
L 125.716141 127.722489 
L 136.068646 190.091997 
L 146.42115 128.78558 
L 156.773655 307.050634 
L 167.12616 127.554446 
L 177.478664 129.112821 
L 187.831169 68.966784 
L 198.183673 249.149294 
L 208.536178 186.538335 
L 218.888683 128.272608 
L 229.241187 188.236451 
L 239.593692 69.187893 
L 249.946197 128.430037 
L 260.298701 188.175425 
L 270.651206 69.721208 
L 281.003711 66.96 
L 291.356215 188.592879 
L 301.70872 187.124716 
L 312.061224 188.960804 
L 322.413729 125.949195 
L 332.766234 67.931995 
L 343.118738 187.966698 
L 353.471243 127.694187 
L 363.823748 369.36 
L 374.176252 309.589848 
L 384.528757 187.267994 
L 394.881262 127.871958 
L 405.233766 128.071841 
L 415.586271 127.761404 
L 425.938776 129.371961 
L 436.29128 186.826661 
L 446.643785 188.677784 
L 456.996289 71.139842 
L 467.348794 190.597009 
L 477.701299 68.893376 
L 488.053803 189.159802 
L 498.406308 70.901045 
L 508.758813 129.897316 
L 519.111317 186.831083 
L 529.463822 131.399087 
L 539.816327 70.207647 
L 550.168831 128.791771 
L 560.521336 189.212868 
L 570.87384 190.46346 
L 581.226345 249.987739 
L 591.57885 189.643588 
L 601.931354 130.409404 
L 612.283859 249.909908 
L 622.636364 188.8644 
" clip-path="url(#p05f5b0c24e)" style="fill: none; stroke: #8b0000; stroke-width: 1.5; stroke-linecap: square"/>
    <defs>
     <path id="m4a45bbc2ed" d="M 0 3 
C 0.795609 3 1.55874 2.683901 2.12132 2.12132 
C 2.683901 1.55874 3 0.795609 3 0 
C 3 -0.795609 2.683901 -1.55874 2.12132 -2.12132 
C 1.55874 -2.683901 0.795609 -3 0 -3 
C -0.795609 -3 -1.55874 -2.683901 -2.12132 -2.12132 
C -2.683901 -1.55874 -3 -0.795609 -3 0 
C -3 0.795609 -2.683901 1.55874 -2.12132 2.12132 
C -1.55874 2.683901 -0.795609 3 0 3 
z
" style="stroke: #8b0000"/>
    </defs>
    <g clip-path="url(#p05f5b0c24e)">
     <use xlink:href="#m4a45bbc2ed" x="115.363636" y="130.199793" style="fill: #8b0000; stroke: #8b0000"/>
     <use xlink:href="#m4a45bbc2ed" x="125.716141" y="127.722489" style="fill: #8b0000; stroke: #8b0000"/>
     <use xlink:href="#m4a45bbc2ed" x="136.068646" y="190.091997" style="fill: #8b0000; stroke: #8b0000"/>
     <use xlink:href="#m4a45bbc2ed" x="146.42115" y="128.78558" style="fill: #8b0000; stroke: #8b0000"/>
     <use xlink:href="#m4a45bbc2ed" x="156.773655" y="307.050634" style="fill: #8b0000; stroke: #8b0000"/>
     <use xlink:href="#m4a45bbc2ed" x="167.12616" y="127.554446" style="fill: #8b0000; stroke: #8b0000"/>
     <use xlink:href="#m4a45bbc2ed" x="177.478664" y="129.112821" style="fill: #8b0000; stroke: #8b0000"/>
     <use xlink:href="#m4a45bbc2ed" x="187.831169" y="68.966784" style="fill: #8b0000; stroke: #8b0000"/>
     <use xlink:href="#m4a45bbc2ed" x="198.183673" y="249.149294" style="fill: #8b0000; stroke: #8b0000"/>
     <use xlink:href="#m4a45bbc2ed" x="208.536178" y="186.538335" style="fill: #8b0000; stroke: #8b0000"/>
     <use xlink:href="#m4a45bbc2ed" x="218.888683" y="128.272608" style="fill: #8b0000; stroke: #8b0000"/>
     <use xlink:href="#m4a45bbc2ed" x="229.241187" y="188.236451" style="fill: #8b0000; stroke: #8b0000"/>
     <use xlink:href="#m4a45bbc2ed" x="239.593692" y="69.187893" style="fill: #8b0000; stroke: #8b0000"/>
     <use xlink:href="#m4a45bbc2ed" x="249.946197" y="128.430037" style="fill: #8b0000; stroke: #8b0000"/>
     <use xlink:href="#m4a45bbc2ed" x="260.298701" y="188.175425" style="fill: #8b0000; stroke: #8b0000"/>
     <use xlink:href="#m4a45bbc2ed" x="270.651206" y="69.721208" style="fill: #8b0000; stroke: #8b0000"/>
     <use xlink:href="#m4a45bbc2ed" x="281.003711" y="66.96" style="fill: #8b0000; stroke: #8b0000"/>
     <use xlink:href="#m4a45bbc2ed" x="291.356215" y="188.592879" style="fill: #8b0000; stroke: #8b0000"/>
     <use xlink:href="#m4a45bbc2ed" x="301.70872" y="187.124716" style="fill: #8b0000; stroke: #8b0000"/>
     <use xlink:href="#m4a45bbc2ed" x="312.061224" y="188.960804" style="fill: #8b0000; stroke: #8b0000"/>
     <use xlink:href="#m4a45bbc2ed" x="322.413729" y="125.949195" style="fill: #8b0000; stroke: #8b0000"/>
     <use xlink:href="#m4a45bbc2ed" x="332.766234" y="67.931995" style="fill: #8b0000; stroke: #8b0000"/>
     <use xlink:href="#m4a45bbc2ed" x="343.118738" y="187.966698" style="fill: #8b0000; stroke: #8b0000"/>
     <use xlink:href="#m4a45bbc2ed" x="353.471243" y="127.694187" style="fill: #8b0000; stroke: #8b0000"/>
     <use xlink:href="#m4a45bbc2ed" x="363.823748" y="369.36" style="fill: #8b0000; stroke: #8b0000"/>
     <use xlink:href="#m4a45bbc2ed" x="374.176252" y="309.589848" style="fill: #8b0000; stroke: #8b0000"/>
     <use xlink:href="#m4a45bbc2ed" x="384.528757" y="187.267994" style="fill: #8b0000; stroke: #8b0000"/>
     <use xlink:href="#m4a45bbc2ed" x="394.881262" y="127.871958" style="fill: #8b0000; stroke: #8b0000"/>
     <use xlink:href="#m4a45bbc2ed" x="405.233766" y="128.071841" style="fill: #8b0000; stroke: #8b0000"/>
     <use xlink:href="#m4a45bbc2ed" x="415.586271" y="127.761404" style="fill: #8b0000; stroke: #8b0000"/>
     <use xlink:href="#m4a45bbc2ed" x="425.938776" y="129.371961" style="fill: #8b0000; stroke: #8b0000"/>
     <use xlink:href="#m4a45bbc2ed" x="436.29128" y="186.826661" style="fill: #8b0000; stroke: #8b0000"/>
     <use xlink:href="#m4a45bbc2ed" x="446.643785" y="188.677784" style="fill: #8b0000; stroke: #8b0000"/>
     <use xlink:href="#m4a45bbc2ed" x="456.996289" y="71.139842" style="fill: #8b0000; stroke: #8b0000"/>
     <use xlink:href="#m4a45bbc2ed" x="467.348794" y="190.597009" style="fill: #8b0000; stroke: #8b0000"/>
     <use xlink:href="#m4a45bbc2ed" x="477.701299" y="68.893376" style="fill: #8b0000; stroke: #8b0000"/>
     <use xlink:href="#m4a45bbc2ed" x="488.053803" y="189.159802" style="fill: #8b0000; stroke: #8b0000"/>
     <use xlink:href="#m4a45bbc2ed" x="498.406308" y="70.901045" style="fill: #8b0000; stroke: #8b0000"/>
     <use xlink:href="#m4a45bbc2ed" x="508.758813" y="129.897316" style="fill: #8b0000; stroke: #8b0000"/>
     <use xlink:href="#m4a45bbc2ed" x="519.111317" y="186.831083" style="fill: #8b0000; stroke: #8b0000"/>
     <use xlink:href="#m4a45bbc2ed" x="529.463822" y="131.399087" style="fill: #8b0000; stroke: #8b0000"/>
     <use xlink:href="#m4a45bbc2ed" x="539.816327" y="70.207647" style="fill: #8b0000; stroke: #8b0000"/>
     <use xlink:href="#m4a45bbc2ed" x="550.168831" y="128.791771" style="fill: #8b0000; stroke: #8b0000"/>
     <use xlink:href="#m4a45bbc2ed" x="560.521336" y="189.212868" style="fill: #8b0000; stroke: #8b0000"/>
     <use xlink:href="#m4a45bbc2ed" x="570.87384" y="190.46346" style="fill: #8b0000; stroke: #8b0000"/>
     <use xlink:href="#m4a45bbc2ed" x="581.226345" y="249.987739" style="fill: #8b0000; stroke: #8b0000"/>
     <use xlink:href="#m4a45bbc2ed" x="591.57885" y="189.643588" style="fill: #8b0000; stroke: #8b0000"/>
     <use xlink:href="#m4a45bbc2ed" x="601.931354" y="130.409404" style="fill: #8b0000; stroke: #8b0000"/>
     <use xlink:href="#m4a45bbc2ed" x="612.283859" y="249.909908" style="fill: #8b0000; stroke: #8b0000"/>
     <use xlink:href="#m4a45bbc2ed" x="622.636364" y="188.8644" style="fill: #8b0000; stroke: #8b0000"/>
    </g>
   </g>
   <g id="line2d_28">
    <path d="M 136.068646 384.48 
L 136.068646 51.84 
" clip-path="url(#p05f5b0c24e)" style="fill: none; stroke-dasharray: 5.55,2.4; stroke-dashoffset: 0; stroke: #000000; stroke-width: 1.5"/>
   </g>
   <g id="patch_3">
    <path d="M 90 384.48 
L 90 51.84 
" style="fill: none; stroke: #000000; stroke-width: 0.8; stroke-linejoin: miter; stroke-linecap: square"/>
   </g>
   <g id="patch_4">
    <path d="M 648 384.48 
L 648 51.84 
" style="fill: none; stroke: #000000; stroke-width: 0.8; stroke-linejoin: miter; stroke-linecap: square"/>
   </g>
   <g id="patch_5">
    <path d="M 90 384.48 
L 648 384.48 
" style="fill: none; stroke: #000000; stroke-width: 0.8; stroke-linejoin: miter; stroke-linecap: square"/>
   </g>
   <g id="patch_6">
    <path d="M 90 51.84 
L 648 51.84 
" style="fill: none; stroke: #000000; stroke-width: 0.8; stroke-linejoin: miter; stroke-linecap: square"/>
   </g>
   <g id="text_16">
    <!-- SIS传播阈值分析 -->
    <g transform="translate(324 45.84) scale(0.12 -0.12)">
     <defs>
      <path id="SimHei-53" d="M 2900 1325 
Q 2900 750 2537 412 
Q 2175 75 1550 75 
Q 925 75 575 425 
Q 225 775 225 1300 
L 225 1475 
L 800 1475 
L 800 1325 
Q 800 950 1025 750 
Q 1250 550 1550 550 
Q 1950 550 2137 762 
Q 2325 975 2325 1275 
Q 2325 1525 2100 1737 
Q 1875 1950 1450 2125 
Q 850 2350 587 2625 
Q 325 2900 325 3275 
Q 325 3800 687 4125 
Q 1050 4450 1550 4450 
Q 2200 4450 2487 4062 
Q 2775 3675 2775 3225 
L 2200 3225 
Q 2225 3500 2050 3725 
Q 1875 3950 1550 3950 
Q 1250 3950 1075 3787 
Q 900 3625 900 3350 
Q 900 3125 1037 2962 
Q 1175 2800 1750 2575 
Q 2300 2350 2600 2037 
Q 2900 1725 2900 1325 
z
" transform="scale(0.015625)"/>
      <path id="SimHei-49" d="M 1850 125 
L 1275 125 
L 1275 4400 
L 1850 4400 
L 1850 125 
z
" transform="scale(0.015625)"/>
      <path id="SimHei-4f20" d="M 5500 1975 
Q 5025 925 4700 250 
Q 4975 100 5450 -200 
Q 5300 -375 5125 -675 
Q 4700 -375 4012 12 
Q 3325 400 3050 525 
Q 3175 750 3275 950 
Q 3600 800 4275 475 
Q 4525 975 4750 1550 
L 2800 1550 
Q 2950 2000 3125 2650 
L 2575 2650 
Q 2200 2650 1925 2625 
L 1925 3075 
Q 2250 3050 2600 3050 
L 3200 3050 
Q 3300 3525 3350 3825 
L 2975 3825 
Q 2525 3825 2250 3800 
L 2250 4250 
Q 2550 4225 2950 4225 
L 3425 4225 
Q 3525 4950 3525 5225 
Q 3850 5150 4100 5125 
Q 4025 5000 3875 4225 
L 4950 4225 
Q 5350 4225 5700 4250 
L 5700 3800 
Q 5375 3825 4925 3825 
L 3825 3825 
Q 3775 3550 3675 3050 
L 5250 3050 
Q 5750 3050 6025 3075 
L 6025 2625 
Q 5725 2650 5250 2650 
L 3600 2650 
Q 3500 2250 3425 1975 
L 5500 1975 
z
M 2225 4875 
Q 2025 4675 1650 3750 
L 1650 550 
Q 1650 -25 1675 -525 
L 1125 -525 
Q 1175 -125 1175 525 
L 1175 3000 
Q 800 2400 550 2050 
Q 450 2250 200 2450 
Q 500 2800 925 3525 
Q 1350 4250 1625 5175 
Q 1850 5050 2225 4875 
z
" transform="scale(0.015625)"/>
      <path id="SimHei-64ad" d="M 5775 4600 
Q 5325 4550 4300 4475 
L 4300 3475 
L 4725 3475 
Q 4850 3800 5050 4475 
Q 5250 4350 5575 4225 
Q 5400 4000 5312 3812 
Q 5225 3625 5150 3475 
L 5400 3475 
Q 5725 3475 6100 3500 
L 6100 3075 
Q 5725 3100 5425 3100 
L 4850 3100 
Q 5325 2425 6200 2100 
Q 5975 1875 5925 1625 
Q 5600 1750 5525 1825 
L 5525 300 
Q 5525 -50 5550 -600 
L 5075 -600 
L 5075 -225 
L 3050 -225 
L 3050 -600 
L 2575 -600 
Q 2600 -100 2600 250 
L 2600 1725 
Q 2400 1600 2225 1475 
Q 2050 1725 1850 1875 
Q 2825 2375 3300 3100 
Q 2725 3100 2225 3075 
L 2225 3500 
Q 2650 3475 2850 3475 
L 3000 3475 
Q 2800 3925 2625 4100 
Q 2700 4150 3025 4325 
Q 3075 4225 3425 3725 
Q 3300 3650 3050 3475 
L 3825 3475 
L 3825 4425 
Q 3000 4400 2525 4325 
Q 2425 4600 2300 4800 
Q 3050 4775 4025 4875 
Q 5000 4975 5425 5125 
Q 5550 4825 5775 4600 
z
M 1175 4550 
Q 1175 4900 1150 5200 
L 1650 5200 
Q 1625 5000 1600 4650 
L 1600 3825 
Q 1900 3825 2125 3850 
L 2125 3400 
Q 1850 3425 1600 3425 
L 1600 2425 
L 2100 2675 
Q 2100 2475 2150 2200 
Q 1900 2100 1600 1950 
L 1600 50 
Q 1600 -350 1362 -450 
Q 1125 -550 700 -600 
Q 650 -350 475 -75 
Q 925 -75 1050 -37 
Q 1175 0 1175 275 
L 1175 1800 
Q 1000 1750 425 1400 
L 225 1900 
Q 525 2000 1175 2275 
L 1175 3425 
Q 600 3425 300 3375 
L 300 3850 
Q 750 3825 1175 3825 
L 1175 4550 
z
M 5300 1950 
Q 4750 2350 4375 3100 
L 4325 3100 
Q 4325 2550 4350 2050 
L 3825 2050 
Q 3850 2550 3850 3075 
Q 3475 2525 2825 1950 
L 5300 1950 
z
M 3850 150 
L 3850 675 
L 3050 675 
L 3050 150 
L 3850 150 
z
M 5075 150 
L 5075 675 
L 4275 675 
L 4275 150 
L 5075 150 
z
M 3850 1075 
L 3850 1575 
L 3050 1575 
L 3050 1075 
L 3850 1075 
z
M 5075 1075 
L 5075 1575 
L 4275 1575 
L 4275 1075 
L 5075 1075 
z
" transform="scale(0.015625)"/>
      <path id="SimHei-9608" d="M 5225 825 
Q 4925 75 4612 150 
Q 4300 225 3975 800 
Q 3850 600 3687 362 
Q 3525 125 3325 -100 
Q 3150 50 2875 175 
Q 3150 425 3337 687 
Q 3525 950 3700 1250 
Q 3525 1750 3437 2087 
Q 3350 2425 3300 3175 
L 1900 3175 
Q 1675 3175 1350 3150 
L 1350 3550 
Q 1675 3525 1900 3525 
L 3300 3525 
Q 3250 4025 3225 4300 
Q 3425 4275 3775 4275 
Q 3750 3850 3750 3525 
L 4425 3525 
Q 4675 3525 5075 3550 
L 5075 3150 
Q 4675 3175 4425 3175 
L 3750 3175 
Q 3750 2900 3812 2475 
Q 3875 2050 4000 1775 
Q 4075 1975 4137 2237 
Q 4200 2500 4250 2925 
Q 4675 2800 4850 2725 
Q 4700 2550 4562 2112 
Q 4425 1675 4225 1200 
Q 4350 950 4537 787 
Q 4725 625 4850 1100 
Q 5075 925 5225 825 
z
M 5900 4875 
Q 5875 4400 5875 3825 
L 5875 100 
Q 5875 -400 5550 -475 
Q 5225 -550 4850 -625 
Q 4750 -350 4575 -50 
Q 5150 -75 5300 -50 
Q 5450 -25 5450 300 
L 5450 4500 
L 3600 4500 
Q 3050 4500 2400 4475 
L 2400 4900 
Q 3050 4875 3550 4875 
L 5900 4875 
z
M 3050 2725 
Q 2975 2450 2975 2200 
L 2975 1300 
L 1450 1300 
Q 1475 1550 1475 1725 
L 1475 2200 
Q 1475 2425 1450 2725 
L 3050 2725 
z
M 1075 3850 
Q 1050 3475 1050 3100 
L 1050 -575 
L 550 -575 
Q 600 100 600 625 
L 600 2975 
Q 600 3500 550 3850 
L 1075 3850 
z
M 3100 1050 
Q 3075 775 3100 650 
Q 2775 575 2200 450 
Q 1625 325 1325 200 
Q 1200 475 1125 725 
Q 1425 750 1987 850 
Q 2550 950 3100 1050 
z
M 1375 5275 
Q 1650 4900 1975 4375 
Q 1725 4225 1475 4100 
Q 1200 4625 900 5000 
Q 1150 5200 1375 5275 
z
M 2550 1675 
L 2550 2350 
L 1900 2350 
L 1900 1675 
L 2550 1675 
z
M 4500 4400 
Q 4625 4150 4800 3875 
Q 4625 3800 4350 3650 
Q 4225 3925 4075 4175 
Q 4325 4350 4500 4400 
z
" transform="scale(0.015625)"/>
      <path id="SimHei-503c" d="M 3675 4450 
L 3675 5100 
Q 3975 5075 4350 5050 
Q 4225 4875 4200 4450 
L 5125 4450 
Q 5550 4450 5875 4475 
L 5875 4025 
Q 5525 4050 5125 4050 
L 4175 4050 
L 4125 3500 
L 5400 3500 
Q 5375 3200 5375 2700 
L 5375 150 
Q 5875 150 6100 175 
L 6100 -275 
Q 5775 -250 5200 -250 
L 2850 -250 
Q 2275 -250 1900 -275 
L 1900 175 
Q 2125 150 2600 150 
L 2600 2700 
Q 2600 3175 2575 3500 
L 3600 3500 
L 3650 4050 
L 3200 4050 
Q 2575 4050 2225 4025 
L 2225 4475 
Q 2550 4450 3200 4450 
L 3675 4450 
z
M 2225 4900 
Q 2025 4675 1650 3750 
L 1650 450 
Q 1650 -75 1675 -550 
L 1150 -550 
Q 1175 -125 1175 375 
L 1175 2950 
Q 875 2450 625 2150 
Q 425 2425 250 2575 
Q 500 2825 937 3537 
Q 1375 4250 1625 5150 
Q 1975 4975 2225 4900 
z
M 4925 2650 
L 4925 3150 
L 3075 3150 
L 3075 2650 
L 4925 2650 
z
M 4925 150 
L 4925 625 
L 3075 625 
L 3075 150 
L 4925 150 
z
M 4925 1000 
L 4925 1450 
L 3075 1450 
L 3075 1000 
L 4925 1000 
z
M 4925 1825 
L 4925 2275 
L 3075 2275 
L 3075 1825 
L 4925 1825 
z
" transform="scale(0.015625)"/>
      <path id="SimHei-5206" d="M 1000 -650 
Q 825 -375 575 -225 
Q 975 -75 1300 137 
Q 1625 350 1875 662 
Q 2125 975 2250 1350 
Q 2375 1725 2425 2275 
Q 1850 2275 1500 2250 
L 1500 2775 
Q 1900 2750 2525 2750 
L 5025 2750 
Q 4975 2375 4950 2100 
L 4750 250 
Q 4700 -200 4350 -350 
Q 4000 -500 3575 -525 
Q 3550 -275 3325 50 
Q 3850 25 4037 87 
Q 4225 150 4275 525 
L 4450 2275 
L 2950 2275 
Q 2875 1625 2737 1187 
Q 2600 750 2350 425 
Q 2100 100 1750 -175 
Q 1400 -450 1000 -650 
z
M 3950 5175 
Q 4125 4650 4662 3975 
Q 5200 3300 6175 2800 
Q 5975 2625 5775 2275 
Q 5325 2600 4987 2887 
Q 4650 3175 4425 3425 
Q 4200 3675 3925 4137 
Q 3650 4600 3475 5000 
Q 3750 5075 3950 5175 
z
M 2700 4825 
Q 2475 4425 2325 4125 
Q 2175 3825 2025 3587 
Q 1875 3350 1575 2950 
Q 1275 2550 850 2125 
Q 625 2350 400 2475 
Q 900 2925 1187 3300 
Q 1475 3675 1737 4112 
Q 2000 4550 2200 5075 
Q 2400 4925 2700 4825 
z
" transform="scale(0.015625)"/>
      <path id="SimHei-6790" d="M 5900 4550 
Q 5575 4525 5087 4450 
Q 4600 4375 3725 4275 
L 3725 3075 
L 5400 3075 
Q 5725 3075 6150 3100 
L 6150 2650 
Q 5700 2675 5250 2675 
L 5250 350 
Q 5250 -100 5275 -475 
L 4750 -475 
Q 4775 -75 4775 375 
L 4775 2675 
L 3725 2675 
Q 3725 2175 3650 1637 
Q 3575 1100 3437 637 
Q 3300 175 2850 -500 
Q 2675 -300 2275 -150 
Q 2825 325 3050 1112 
Q 3275 1900 3262 3000 
Q 3250 4100 3225 4650 
Q 3975 4700 4562 4800 
Q 5150 4900 5500 5050 
Q 5675 4750 5900 4550 
z
M 1900 525 
Q 1900 200 1925 -525 
L 1400 -525 
Q 1425 25 1425 525 
L 1425 2250 
Q 1175 1625 600 800 
Q 425 1075 200 1225 
Q 650 1725 962 2387 
Q 1275 3050 1375 3425 
Q 925 3425 450 3400 
L 450 3850 
Q 925 3825 1425 3825 
L 1425 4450 
Q 1425 4775 1400 5125 
L 1950 5125 
Q 1900 4825 1900 4450 
L 1900 3825 
Q 2300 3825 2775 3850 
L 2775 3400 
Q 2300 3425 1900 3425 
L 1900 525 
z
M 2375 2750 
Q 2800 2050 2925 1800 
Q 2700 1700 2450 1550 
Q 2300 1900 1950 2525 
Q 2175 2625 2375 2750 
z
" transform="scale(0.015625)"/>
     </defs>
     <use xlink:href="#SimHei-53"/>
     <use xlink:href="#SimHei-49" x="50"/>
     <use xlink:href="#SimHei-53" x="100"/>
     <use xlink:href="#SimHei-4f20" x="150"/>
     <use xlink:href="#SimHei-64ad" x="250"/>
     <use xlink:href="#SimHei-9608" x="350"/>
     <use xlink:href="#SimHei-503c" x="450"/>
     <use xlink:href="#SimHei-5206" x="550"/>
     <use xlink:href="#SimHei-6790" x="650"/>
    </g>
   </g>
   <g id="legend_1">
    <g id="patch_7">
     <path d="M 534 379.48 
L 641 379.48 
Q 643 379.48 643 377.48 
L 643 364.26125 
Q 643 362.26125 641 362.26125 
L 534 362.26125 
Q 532 362.26125 532 364.26125 
L 532 377.48 
Q 532 379.48 534 379.48 
z
" style="fill: #ffffff; opacity: 0.8; stroke: #cccccc; stroke-linejoin: miter"/>
    </g>
    <g id="line2d_29">
     <path d="M 536 370.73 
L 546 370.73 
L 556 370.73 
" style="fill: none; stroke-dasharray: 5.55,2.4; stroke-dashoffset: 0; stroke: #000000; stroke-width: 1.5"/>
    </g>
    <g id="text_17">
     <!-- 估计阈值: 0.041 -->
     <g transform="translate(564 374.23) scale(0.1 -0.1)">
      <defs>
       <path id="SimHei-4f30" d="M 3700 3800 
L 3700 4375 
Q 3700 4700 3650 5075 
L 4250 5075 
Q 4200 4700 4200 4400 
L 4200 3800 
L 5125 3800 
Q 5600 3800 6000 3825 
L 6000 3350 
Q 5650 3375 5125 3375 
L 4200 3375 
L 4200 2225 
L 5500 2225 
Q 5475 1525 5475 825 
Q 5475 150 5500 -450 
L 5000 -450 
L 5000 25 
L 2925 25 
L 2925 -500 
L 2425 -500 
Q 2450 175 2450 850 
Q 2450 1525 2425 2225 
L 3700 2225 
L 3700 3375 
L 2950 3375 
Q 2425 3375 2025 3350 
L 2025 3825 
Q 2425 3800 2925 3800 
L 3700 3800 
z
M 2200 4900 
Q 1975 4650 1625 3700 
L 1625 675 
Q 1625 -100 1650 -525 
L 1100 -525 
Q 1150 -75 1150 650 
L 1150 2925 
Q 800 2350 500 1975 
Q 425 2150 200 2425 
Q 500 2775 937 3550 
Q 1375 4325 1575 5150 
Q 1775 5050 2200 4900 
z
M 5000 450 
L 5000 1800 
L 2925 1800 
L 2925 450 
L 5000 450 
z
" transform="scale(0.015625)"/>
       <path id="SimHei-8ba1" d="M 3925 3100 
L 3925 4350 
Q 3925 4850 3900 5125 
L 4425 5125 
Q 4400 4800 4400 4550 
L 4400 3100 
L 5425 3100 
Q 5725 3100 6075 3125 
L 6075 2650 
Q 5700 2675 5450 2675 
L 4400 2675 
L 4400 175 
Q 4400 -125 4425 -550 
L 3900 -550 
Q 3925 -125 3925 150 
L 3925 2675 
L 2950 2675 
Q 2575 2675 2200 2650 
L 2200 3125 
Q 2575 3100 2900 3100 
L 3925 3100 
z
M 1775 3150 
Q 1750 2675 1750 2150 
L 1750 625 
Q 2175 1050 2425 1400 
Q 2575 1200 2775 1000 
L 2075 300 
Q 1750 -25 1450 -350 
Q 1275 -125 1125 50 
Q 1300 250 1275 650 
L 1275 2725 
Q 600 2725 275 2700 
L 275 3175 
Q 675 3150 825 3150 
L 1775 3150 
z
M 1150 5050 
Q 1475 4725 2175 4000 
Q 1950 3800 1750 3625 
Q 1425 4100 775 4750 
Q 950 4875 1150 5050 
z
" transform="scale(0.015625)"/>
       <path id="SimHei-3a" d="M 1825 2425 
L 1250 2425 
L 1250 2975 
L 1825 2975 
L 1825 2425 
z
M 1825 125 
L 1250 125 
L 1250 675 
L 1825 675 
L 1825 125 
z
" transform="scale(0.015625)"/>
      </defs>
      <use xlink:href="#SimHei-4f30"/>
      <use xlink:href="#SimHei-8ba1" x="100"/>
      <use xlink:href="#SimHei-9608" x="200"/>
      <use xlink:href="#SimHei-503c" x="300"/>
      <use xlink:href="#SimHei-3a" x="400"/>
      <use xlink:href="#SimHei-20" x="450"/>
      <use xlink:href="#SimHei-30" x="500"/>
      <use xlink:href="#SimHei-2e" x="550"/>
      <use xlink:href="#SimHei-30" x="600"/>
      <use xlink:href="#SimHei-34" x="650"/>
      <use xlink:href="#SimHei-31" x="700"/>
     </g>
    </g>
   </g>
  </g>
 </g>
 <defs>
  <clipPath id="p05f5b0c24e">
   <rect x="90" y="51.84" width="558" height="332.64"/>
  </clipPath>
 </defs>
</svg>
